<svg width="160" height="160" viewBox="0 0 160 160" fill="none" xmlns="http://www.w3.org/2000/svg">
<path fill-rule="evenodd" clip-rule="evenodd" d="M97.5264 57.3399C92.8872 54.6736 87.8469 53.2465 83.5688 53.3757C79.3064 53.5043 77.4 55.0565 76.6867 56.2863C75.9734 57.5162 75.5763 59.9358 77.5955 63.6747L92.5777 91.4161C95.7299 97.2529 96.3843 103.636 93.3328 108.897C90.2813 114.159 84.4009 116.786 77.7469 116.987C71.1087 117.188 64.1699 115.032 58.2662 111.639C52.3625 108.246 47.0176 103.342 43.8728 97.5186L42 94.051L51.1732 89.1417L53.046 92.6094C55.0727 96.3621 58.8344 99.9938 63.4736 102.66C68.1128 105.326 73.1531 106.753 77.4312 106.624C81.6936 106.496 83.6 104.943 84.3133 103.714C85.0266 102.484 85.4237 100.064 83.4045 96.3253L68.4223 68.5839C65.2701 62.7471 64.6157 56.364 67.6672 51.1026C70.7187 45.8412 76.5991 43.2137 83.2531 43.0129C89.8913 42.8125 96.8301 44.9684 102.734 48.3614C108.637 51.7544 113.982 56.6584 117.127 62.4813L119 65.949L109.827 70.8583L107.954 67.3906C105.927 63.6379 102.166 60.0062 97.5264 57.3399Z" fill="black"/>
<path d="M30 128.831V136H48.855C50.5223 136 51.874 134.596 51.874 132.876C51.874 92.1008 51.874 67.8992 51.874 27.1244C51.874 25.4042 50.5224 24 48.855 24H30V31.1686L38.7328 31.9765C40.3013 32.1066 41.5098 33.4579 41.5098 35.0813V124.919C41.5098 126.542 40.3013 127.893 38.7328 128.023L30 128.831Z" fill="black"/>
<path d="M131 31.1686V24H112.145C110.478 24 109.126 25.3946 109.126 27.1148V132.885C109.126 134.605 110.478 136 112.145 136H131V128.831L122.267 128.023C120.699 127.893 119.49 126.542 119.49 124.919V35.0813C119.49 33.4579 120.699 32.1066 122.267 31.9765L131 31.1686Z" fill="black"/>
</svg>
