<svg width="160" height="160" viewBox="0 0 160 160" fill="none" xmlns="http://www.w3.org/2000/svg">
<path d="M14 138.154V148.129H41.4312V12H14V21.975H29.6959V138.154H14Z" fill="black"/>
<path d="M146.97 21.975V12H119.538V148.129H146.97V138.154H131.274V21.975H146.97Z" fill="black"/>
<path d="M58.988 75.7767V86.6226H61.9138V75.7767H65.9018V73.3168H55V75.7767H58.988Z" fill="black"/>
<path d="M67.4361 73.3168V86.6226H77.5366V84.1627H70.3619V80.9015H76.8098V78.628H70.3619V75.7767H77.3875V73.3168H67.4361Z" fill="black"/>
<path d="M88.3907 77.7894H91.2233C91.1363 77.0191 90.9251 76.3358 90.5897 75.7394C90.2542 75.1431 89.8256 74.6461 89.3038 74.2486C88.7944 73.8386 88.2105 73.528 87.5521 73.3168C86.906 73.1056 86.2165 73 85.4835 73C84.4648 73 83.5454 73.1801 82.7254 73.5404C81.9179 73.9007 81.2346 74.3977 80.6755 75.0313C80.1164 75.6649 79.6878 76.4103 79.3897 77.2676C79.0915 78.1124 78.9424 79.0317 78.9424 80.0256C78.9424 80.9947 79.0915 81.9016 79.3897 82.7464C79.6878 83.5788 80.1164 84.3056 80.6755 84.9268C81.2346 85.548 81.9179 86.0387 82.7254 86.399C83.5454 86.7469 84.4648 86.9208 85.4835 86.9208C86.3035 86.9208 87.0551 86.7966 87.7384 86.5481C88.4217 86.2996 89.0181 85.9393 89.5274 85.4672C90.0368 84.9951 90.4468 84.4236 90.7574 83.7527C91.068 83.0819 91.2605 82.3302 91.3351 81.4978H88.5025C88.3907 82.3923 88.0801 83.1129 87.5707 83.6596C87.0737 84.2062 86.378 84.4795 85.4835 84.4795C84.825 84.4795 84.266 84.3553 83.8063 84.1068C83.3466 83.8459 82.9739 83.5043 82.6882 83.0819C82.4024 82.6595 82.1912 82.1874 82.0545 81.6656C81.9303 81.1313 81.8682 80.5847 81.8682 80.0256C81.8682 79.4417 81.9303 78.8764 82.0545 78.3298C82.1912 77.7831 82.4024 77.2986 82.6882 76.8762C82.9739 76.4414 83.3466 76.0997 83.8063 75.8512C84.266 75.5903 84.825 75.4599 85.4835 75.4599C85.8438 75.4599 86.1854 75.522 86.5085 75.6463C86.8439 75.7581 87.1421 75.9196 87.403 76.1308C87.6639 76.342 87.8813 76.5905 88.0552 76.8762C88.2291 77.1495 88.341 77.4539 88.3907 77.7894Z" fill="black"/>
<path d="M93.333 73.3168V86.6226H96.2588V80.8829H101.645V86.6226H104.57V73.3168H101.645V78.423H96.2588V73.3168H93.333Z" fill="black"/>
</svg>
